<svg width="49" height="49" viewBox="0 0 49 49" fill="none" xmlns="http://www.w3.org/2000/svg">
<g clip-path="url(#clip0_99_5)">
<path d="M17.6807 9.10897C18.4735 9.10897 19.1162 8.46623 19.1162 7.67343V4.78271C19.1162 3.98991 18.4735 3.34717 17.6807 3.34717C16.8879 3.34717 16.2451 3.98991 16.2451 4.78271V7.67343C16.2451 8.46623 16.8879 9.10897 17.6807 9.10897Z" fill="white"/>
<path d="M4.65702 14.3638L2.15352 12.9184C1.46685 12.5218 0.588869 12.7573 0.192562 13.4438C-0.20384 14.1305 0.0313978 15.0085 0.717972 15.4048L3.22147 16.8502C3.90651 17.2458 4.78516 17.013 5.18243 16.3248C5.57883 15.6381 5.34359 14.7601 4.65702 14.3638Z" fill="white"/>
<path d="M3.22147 30.2308L0.717972 31.6761C0.0313978 32.0726 -0.20384 32.9504 0.192562 33.6371C0.590974 34.3271 1.4702 34.5572 2.15352 34.1625L4.65702 32.7171C5.34359 32.3207 5.57883 31.4428 5.18243 30.7562C4.78603 30.0697 3.90824 29.8342 3.22147 30.2308Z" fill="white"/>
<path d="M32.1394 16.8502L34.6428 15.4048C35.3294 15.0084 35.5647 14.1305 35.1683 13.4438C34.7719 12.7573 33.8941 12.5218 33.2073 12.9184L30.7038 14.3638C30.0172 14.7602 29.782 15.6381 30.1784 16.3248C30.5768 17.0148 31.456 17.2449 32.1394 16.8502Z" fill="white"/>
<path d="M38.1767 25.5785C36.5334 21.5176 32.5472 18.8325 28.1619 18.8515C26.3649 14.8502 22.3435 12.0561 17.6806 12.0561C11.3481 12.0561 6.19629 17.208 6.19629 23.5405C6.19629 27.6032 8.31784 31.1784 11.5102 33.2206C8.10633 38.5979 11.9766 45.6479 18.3444 45.6479C40.9314 45.6243 39.6955 45.7057 40.0889 45.5836C45.1063 45.0177 49.0002 40.7622 49.0002 35.5992C49.0002 29.7032 43.9622 25.1253 38.1767 25.5785ZM9.06738 23.5406C9.06738 18.7912 12.9313 14.9273 17.6807 14.9273C20.8834 14.9273 23.6817 16.6853 25.1657 19.2863C20.6295 20.6155 17.4798 24.7569 17.4293 29.5083C16.0033 29.6648 14.6587 30.1976 13.5007 31.0684C10.8589 29.5956 9.06738 26.7738 9.06738 23.5406ZM39.5459 42.7522C39.0345 42.7937 26.0073 42.7696 18.3444 42.7769C13.6108 42.7769 11.3041 36.9093 14.826 33.6931C15.8832 32.7278 17.2909 32.2141 18.8248 32.3537C19.7501 32.4371 20.5042 31.6366 20.3764 30.7248C19.7109 25.975 23.3891 21.7222 28.1943 21.7222C31.7491 21.7222 34.8822 24.115 35.8134 27.541C36.0125 28.2731 36.7468 28.7236 37.4894 28.5703C41.9638 27.645 46.1291 31.0654 46.1291 35.5992C46.1291 39.3082 43.2374 42.4503 39.5459 42.7522Z" fill="white"/>
</g>
<defs>
<clipPath id="clip0_99_5">
<rect width="49" height="49" fill="white"/>
</clipPath>
</defs>
</svg>
