<svg width="39" height="44" viewBox="0 0 39 44" fill="none" xmlns="http://www.w3.org/2000/svg">
<path d="M17.5497 38.7575L17.55 38.7578L20.0365 37.7165L21.077 38.7969C21.077 38.7969 21.0771 38.7968 21.0772 38.7967C21.2184 38.6607 23.8525 36.1089 26.5263 32.4312L26.5264 32.4312C30.1603 27.4329 32.1667 22.743 32.1667 18.5369C32.1666 11.3723 26.4359 5.5 19.3333 5.5C12.2306 5.5 6.5 11.3723 6.5 18.5369C6.5 22.5619 8.51404 27.1952 12.1295 32.2469C14.7933 35.9691 17.4152 38.622 17.5497 38.7575ZM19.3333 22.0176C17.1065 22.0176 15.2926 20.2036 15.2926 17.9769C15.2926 15.7502 17.1066 13.9362 19.3333 13.9362C21.56 13.9362 23.374 15.7502 23.374 17.9769C23.374 20.2036 21.56 22.0176 19.3333 22.0176Z" stroke="white" stroke-width="3"/>
</svg>
