<svg width="206" height="95" viewBox="0 0 206 95" fill="none" xmlns="http://www.w3.org/2000/svg">
<g opacity="0.38">
<path fill-rule="evenodd" clip-rule="evenodd" d="M205.065 52.245C204.741 52.6526 204.438 53.0599 204.155 53.4666C203.525 54.3735 202.278 54.5976 201.372 53.967C200.465 53.3365 200.241 52.0901 200.871 51.1832C201.204 50.7051 201.558 50.2289 201.935 49.7549L205.065 52.245ZM198.519 62.5296C199.622 62.5812 200.475 63.5175 200.423 64.6209C200.273 67.8355 200.739 70.9505 201.285 73.8932C201.487 74.9792 200.77 76.023 199.684 76.2246C198.598 76.4262 197.554 75.7092 197.352 74.6232C196.794 71.6141 196.255 68.127 196.427 64.4338C196.479 63.3305 197.415 62.4779 198.519 62.5296ZM0.253123 73.9446C0.0822536 72.8533 0 71.8521 0 71H4C4 71.6085 4.05998 72.3998 4.20497 73.3259C4.37584 74.4171 3.62971 75.4403 2.53843 75.6112C1.44716 75.782 0.423991 75.0359 0.253123 73.9446ZM200.223 78.6989C201.322 78.5872 202.303 79.3874 202.415 80.4863C202.548 81.7959 202.572 83.1258 202.309 84.3633C202.079 85.4436 201.017 86.133 199.936 85.903C198.856 85.673 198.167 84.6107 198.397 83.5304C198.535 82.8781 198.55 82.0198 198.436 80.8911C198.324 79.7922 199.124 78.8107 200.223 78.6989ZM58.8926 83.4851C58.2673 83.4236 57.1143 83.5505 54.8274 84.3355C53.7826 84.6941 52.645 84.138 52.2864 83.0932C51.9277 82.0485 52.4839 80.9109 53.5286 80.5522C55.9504 79.7209 57.7752 79.3558 59.2845 79.5044C60.9617 79.6695 61.9955 80.4408 62.8013 81.1597C62.9717 81.3118 63.1272 81.4553 63.2755 81.5921C63.8143 82.0895 64.2582 82.4992 64.9814 82.9149C65.8623 83.4212 67.2174 83.9478 69.5404 84.2332C70.6368 84.3679 71.4163 85.3658 71.2816 86.4622C71.147 87.5585 70.149 88.3381 69.0527 88.2034C66.3104 87.8665 64.4202 87.206 62.988 86.3828C61.8351 85.7201 61.0107 84.9528 60.4512 84.432C60.3358 84.3246 60.2317 84.2277 60.1383 84.1444C59.6079 83.6712 59.3502 83.5302 58.8926 83.4851ZM128.792 82.3408C128.802 81.2363 129.705 80.3488 130.809 80.3585C132.108 80.37 133.407 80.3853 134.703 80.4042C135.808 80.4202 136.69 81.3286 136.674 82.433C136.658 83.5375 135.749 84.4198 134.645 84.4037C133.357 84.385 132.065 84.3698 130.774 84.3584C129.67 84.3486 128.782 83.4453 128.792 82.3408ZM117.259 82.3932C117.283 83.4975 116.407 84.4121 115.303 84.436C111.13 84.5264 107.219 84.6804 103.769 84.9116C102.667 84.9855 101.714 84.1519 101.64 83.0498C101.566 81.9477 102.399 80.9944 103.501 80.9206C107.03 80.6841 111.003 80.5282 115.217 80.437C116.321 80.4131 117.235 81.2889 117.259 82.3932ZM140.436 82.5081C140.464 81.4038 141.381 80.5311 142.486 80.5588C146.569 80.6612 150.513 80.7929 154.156 80.9422C155.26 80.9874 156.118 81.9187 156.073 83.0224C156.028 84.126 155.096 84.9841 153.993 84.9388C150.371 84.7905 146.447 84.6594 142.385 84.5576C141.281 84.5299 140.408 83.6123 140.436 82.5081ZM4.84253 81.8178C5.779 81.2321 7.013 81.5164 7.59875 82.4529C9.92428 86.1708 13.5041 89.421 18.8894 90.5483C19.9706 90.7746 20.6635 91.8345 20.4372 92.9156C20.2109 93.9968 19.151 94.6897 18.0699 94.4634C11.3876 93.0646 6.9718 88.9935 4.20749 84.574C3.62174 83.6376 3.90606 82.4036 4.84253 81.8178ZM97.88 83.395C98.0396 84.4879 97.2829 85.5034 96.19 85.663C95.5356 85.7585 94.9293 85.8592 94.3733 85.9648C93.4108 86.1477 92.478 86.319 91.5738 86.4791C90.4861 86.6717 89.4483 85.9462 89.2556 84.8585C89.063 83.7709 89.7886 82.733 90.8762 82.5404C91.7634 82.3833 92.6798 82.215 93.6267 82.0351C94.2475 81.9172 94.9109 81.8073 95.6119 81.705C96.7049 81.5454 97.7203 82.302 97.88 83.395ZM167.599 83.6575C167.691 82.5568 168.658 81.7392 169.759 81.8313C170.474 81.8912 171.125 81.9511 171.704 82.0104C171.805 82.0208 171.905 82.0387 172.003 82.0642C172.556 82.2079 173.099 82.3472 173.632 82.4822C174.703 82.7534 175.351 83.8413 175.08 84.912C174.809 85.9828 173.721 86.6309 172.65 86.3597C172.157 86.2348 171.656 86.1064 171.146 85.9743C170.634 85.9229 170.059 85.8704 169.425 85.8174C168.324 85.7252 167.507 84.7583 167.599 83.6575ZM177.517 85.4982C177.755 84.4195 178.822 83.7379 179.901 83.9758C183.71 84.8157 186.814 85.3547 189.334 85.6336C190.432 85.7552 191.223 86.7437 191.102 87.8415C190.98 88.9394 189.992 89.7309 188.894 89.6094C186.185 89.3095 182.932 88.7402 179.04 87.8819C177.961 87.6441 177.279 86.5768 177.517 85.4982ZM45.8294 85.9353C46.3022 86.9336 45.8762 88.1261 44.878 88.5989C44.0846 88.9746 43.2501 89.3746 42.3719 89.8C41.5259 90.2097 40.6951 90.5926 39.8793 90.9496C38.8673 91.3923 37.688 90.9309 37.2453 89.919C36.8026 88.907 37.264 87.7277 38.2759 87.285C39.0429 86.9494 39.8269 86.5881 40.6281 86.2C41.5157 85.7701 42.3608 85.3651 43.1659 84.9838C44.1641 84.511 45.3567 84.937 45.8294 85.9353Z" fill="#FFE766"/>
<path d="M0 71C0 67.5 2.5 66 4 71H0Z" fill="#FFE766"/>
<path d="M204.5 53L201 51C201.167 50.6667 203.054 47.5401 205 49C207 50.5 205.5 51.4625 204.5 53Z" fill="#FFE766"/>
</g>
<path d="M42.1707 38.115C42.2207 38.615 42.0707 39.015 41.7207 39.315C41.4208 39.6149 41.0458 39.8149 40.5958 39.9149C40.1458 39.9649 39.7208 39.8899 39.3209 39.6899C38.9209 39.49 38.6959 39.14 38.6459 38.64C38.4959 37.6901 38.2959 36.8151 38.0459 36.0152C37.796 35.1652 37.421 34.3652 36.921 33.6153C36.821 33.5153 36.746 33.4153 36.696 33.3153C36.746 33.4153 36.721 33.4153 36.621 33.3153C36.571 33.2653 36.521 33.2153 36.471 33.1653C36.471 33.1153 36.446 33.0653 36.396 33.0153L35.7211 32.3404C35.6711 32.2904 35.5961 32.2404 35.4961 32.1904C35.3961 32.0904 35.4711 32.1154 35.7211 32.2654C35.5211 32.1654 35.4211 32.1154 35.4211 32.1154C35.1211 31.9154 34.8961 31.7904 34.7461 31.7404C34.6461 31.6404 34.4961 31.5654 34.2962 31.5154C34.0962 31.4654 34.1712 31.4904 34.5211 31.5904C34.4211 31.5404 34.3212 31.5154 34.2212 31.5154C34.1212 31.4654 34.0212 31.4154 33.9212 31.3654C33.8212 31.3154 33.7462 31.2904 33.6962 31.2904C33.6462 31.2904 33.5712 31.2654 33.4712 31.2154C33.3212 31.2154 33.2462 31.2154 33.2462 31.2154C33.2962 31.2154 33.3462 31.2154 33.3962 31.2154C33.4962 31.2154 33.5462 31.2154 33.5462 31.2154C33.5962 31.2154 33.5712 31.2154 33.4712 31.2154C33.2212 31.2654 32.9962 31.3154 32.7962 31.3654C32.6462 31.3654 32.4463 31.4154 32.1963 31.5154C31.9463 31.6154 31.6963 31.7404 31.4463 31.8904C31.2463 31.9904 31.0213 32.1154 30.7714 32.2654C30.6214 32.3654 30.5464 32.4154 30.5464 32.4154C30.5964 32.3654 30.6464 32.3404 30.6964 32.3404C30.7464 32.2904 30.7714 32.2654 30.7714 32.2654C30.8214 32.2154 30.7964 32.2404 30.6964 32.3404C30.2964 32.6903 29.9214 33.0403 29.5714 33.3903C29.2214 33.6903 28.8715 34.0403 28.5215 34.4402C28.2715 34.6902 28.0465 34.9652 27.8465 35.2652C27.6465 35.5152 27.4215 35.7902 27.1716 36.0901C27.0216 36.2401 26.7966 36.5151 26.4966 36.9151C26.3966 37.0651 26.2466 37.2401 26.0466 37.4401C24.9967 38.89 24.0217 40.3649 23.1218 41.8648C22.2218 43.3147 21.3469 44.8147 20.4969 46.3646C18.847 49.6644 17.5471 53.1142 16.5972 56.714C15.6972 60.3138 15.4472 63.9886 15.8472 67.7384C15.8472 67.7884 15.8722 67.9633 15.9222 68.2633C15.9722 68.5633 15.9722 68.5633 15.9222 68.2633C15.9222 68.3633 15.9222 68.4383 15.9222 68.4883C15.9722 68.5383 15.9972 68.6133 15.9972 68.7133L16.2222 69.8382C16.3222 70.1882 16.3972 70.5382 16.4472 70.8882C16.5472 71.1882 16.6472 71.5131 16.7471 71.8631C16.7971 72.0131 16.8471 72.1881 16.8971 72.3881C16.9471 72.5381 16.9971 72.6881 17.0471 72.8381C17.0971 72.9881 17.1471 73.1631 17.1971 73.363C17.2971 73.513 17.2971 73.463 17.1971 73.213C17.2971 73.463 17.3971 73.713 17.4971 73.963C17.6471 74.213 17.7721 74.463 17.8721 74.713L18.772 76.0629C18.872 76.2129 18.897 76.2879 18.847 76.2879C18.847 76.2379 18.822 76.1879 18.772 76.1379C18.722 76.0379 18.697 75.9879 18.697 75.9879C18.697 75.9379 18.747 75.9879 18.847 76.1379C18.947 76.2879 19.072 76.4129 19.222 76.5129C19.272 76.6129 19.397 76.7628 19.597 76.9628C19.597 77.0128 19.647 77.0378 19.747 77.0378C19.797 77.0378 19.822 77.0628 19.822 77.1128C19.722 77.0628 19.647 77.0128 19.597 76.9628C19.547 76.9128 19.497 76.8878 19.447 76.8878C19.397 76.8378 19.422 76.8378 19.522 76.8878C19.622 76.9378 19.747 77.0378 19.897 77.1878C19.947 77.1878 19.997 77.2128 20.047 77.2628C20.097 77.2628 20.147 77.2628 20.197 77.2628C20.2969 77.3628 20.3219 77.3878 20.2719 77.3378C20.2719 77.2378 20.147 77.1878 19.897 77.1878C20.147 77.1878 20.3719 77.2378 20.5719 77.3378C20.8219 77.4378 21.0719 77.5378 21.3219 77.6378C21.4219 77.6378 21.5719 77.6878 21.7719 77.7878C21.9719 77.8378 21.9719 77.8128 21.7719 77.7128C21.5219 77.6128 21.4469 77.5878 21.5469 77.6378C21.6969 77.6878 21.7969 77.7128 21.8469 77.7128H22.2968C22.5968 77.7628 22.8968 77.7878 23.1968 77.7878C23.4968 77.7378 23.7967 77.7128 24.0967 77.7128C24.1467 77.7128 24.2467 77.6878 24.3967 77.6378C24.5967 77.5878 24.5717 77.5878 24.3217 77.6378C24.0717 77.7378 24.0217 77.7628 24.1717 77.7128C24.3717 77.6628 24.4967 77.6378 24.5467 77.6378L25.4467 77.4128C25.9466 77.3128 26.2966 77.2128 26.4966 77.1128C26.6466 77.1128 26.8216 77.0628 27.0216 76.9628C27.3215 76.8628 27.3465 76.8628 27.0966 76.9628C26.8966 77.0628 26.8716 77.0628 27.0216 76.9628C27.3215 76.7628 27.6215 76.6129 27.9215 76.5129C28.2215 76.3629 28.5215 76.1879 28.8215 75.9879C29.1214 75.7879 29.3214 75.6379 29.4214 75.5379C29.5214 75.4879 29.5464 75.4879 29.4964 75.5379C29.4964 75.5379 29.4714 75.5629 29.4214 75.6129C29.3714 75.6129 29.3464 75.6129 29.3464 75.6129C29.3464 75.6129 29.4214 75.5629 29.5714 75.4629C29.7214 75.3129 29.8714 75.1879 30.0214 75.0879C30.1714 74.938 30.3214 74.813 30.4714 74.713C30.8713 74.413 31.1963 74.163 31.4463 73.963C31.6963 73.713 32.0213 73.438 32.4213 73.1381C33.0712 72.5881 33.7212 72.5131 34.3711 72.9131C35.0211 73.263 35.2711 73.863 35.1211 74.713C34.7211 76.8628 33.6212 78.6377 31.8213 80.0377C30.0714 81.3876 28.1715 82.2625 26.1216 82.6625C24.6717 82.9625 23.1218 83.0625 21.4719 82.9625C19.872 82.9125 18.4221 82.4625 17.1221 81.6126C16.1222 80.9626 15.2722 80.1627 14.5723 79.2127C13.9223 78.2628 13.3473 77.2878 12.8474 76.2879C12.0974 74.688 11.5474 73.0131 11.1975 71.2632C10.8475 69.5133 10.6225 67.7384 10.5225 65.9385C10.3725 61.4387 10.9725 57.089 12.3224 52.8892C13.7223 48.6894 15.5972 44.7147 17.9471 40.9649C19.797 37.8151 21.9469 34.8402 24.3967 32.0404C25.3967 30.9404 26.4966 29.9155 27.6965 28.9656C28.8965 27.9656 30.2464 27.3406 31.7463 27.0907C32.8962 26.8407 34.0212 26.8907 35.1211 27.2407C36.221 27.5906 37.221 28.1656 38.1209 28.9656C39.4209 30.1155 40.3708 31.5154 40.9708 33.1653C41.5707 34.7652 41.9707 36.4151 42.1707 38.115Z" fill="#FFE766"/>
<path d="M62.9609 49.6644C63.9109 50.6643 64.6108 51.7893 65.0608 53.0392C65.5608 54.2391 65.8858 55.5141 66.0358 56.864C66.1858 58.2139 66.1858 59.5888 66.0358 60.9887C65.8858 62.3387 65.6358 63.6386 65.2858 64.8885C64.9358 66.1385 64.4359 67.3134 63.7859 68.4133C63.1859 69.5133 62.361 70.4632 61.311 71.2632C60.3111 71.9631 59.2111 72.4381 58.0112 72.6881C56.8613 72.8881 55.6863 72.8881 54.4864 72.6881C53.1865 72.4881 51.9866 72.0631 50.8866 71.4132C49.8367 70.7632 48.9117 69.9632 48.1118 69.0133C47.3618 68.0633 46.7369 67.0134 46.2369 65.8635C45.7869 64.6635 45.4869 63.4386 45.3369 62.1887C45.037 59.8888 45.2119 57.5639 45.8619 55.2141C46.5619 52.8142 47.7868 50.8143 49.5367 49.2144C50.2867 48.5144 51.1616 47.9645 52.1616 47.5645C53.1615 47.1145 54.1614 46.9395 55.1614 47.0395C55.2614 46.9895 55.3864 46.9645 55.5364 46.9645C55.6864 46.9145 55.8113 46.8645 55.9113 46.8145C57.2113 46.5646 58.4862 46.7645 59.7361 47.4145C61.036 48.0145 62.111 48.7644 62.9609 49.6644ZM61.611 62.3387C62.111 59.6888 62.061 57.5139 61.461 55.814C60.9111 54.1141 59.6111 52.5392 57.5612 51.0893C57.3113 50.9393 57.0613 50.8643 56.8113 50.8643C56.5613 50.8143 56.2863 50.7893 55.9863 50.7893C55.7363 50.7393 55.4864 50.6893 55.2364 50.6393C54.9864 50.5893 54.7614 50.4643 54.5614 50.2643C53.8115 50.4643 53.1115 50.8393 52.4615 51.3893C51.8616 51.9393 51.3366 52.5642 50.8866 53.2642C50.4366 53.9641 50.0617 54.7141 49.7617 55.5141C49.5117 56.314 49.3367 57.064 49.2367 57.7639C49.0867 58.7639 49.0617 59.8138 49.1617 60.9137C49.2617 62.0137 49.4867 63.0636 49.8367 64.0636C50.2367 65.0635 50.7866 65.9635 51.4866 66.7634C52.1865 67.5134 53.0365 68.0633 54.0364 68.4133C54.8864 68.6633 55.7363 68.7883 56.5863 68.7883C57.4863 68.7383 58.3112 68.4133 59.0612 67.8134C59.8611 67.1634 60.4361 66.3384 60.7861 65.3385C61.136 64.3386 61.411 63.3386 61.611 62.3387Z" fill="#FFE766"/>
<path d="M75.6481 42.6898C75.6981 42.3898 75.8481 42.1898 76.0981 42.0898C76.3481 41.9398 76.5981 41.8898 76.848 41.9398C77.098 41.9898 77.323 42.1148 77.523 42.3148C77.723 42.4648 77.823 42.6898 77.823 42.9898C77.773 44.1397 77.698 45.2646 77.598 46.3646C77.548 47.4145 77.473 48.5144 77.373 49.6644C77.123 52.3142 76.773 54.9391 76.3231 57.5389C75.8731 60.1388 75.4231 62.7386 74.9731 65.3385C74.7232 66.4384 74.5232 67.5134 74.3732 68.5633C74.2232 69.6133 74.0482 70.6882 73.8482 71.7881C73.7982 72.0381 73.7482 72.2631 73.6982 72.4631C73.6982 72.6631 73.6732 72.8631 73.6232 73.0631C73.6232 73.1631 73.5982 73.263 73.5482 73.363C73.5482 73.463 73.5732 73.563 73.6232 73.663C73.5732 73.613 73.5482 73.588 73.5482 73.588C73.5982 73.588 73.5982 73.563 73.5482 73.513C73.5982 73.613 73.9232 73.663 74.5232 73.663C75.1231 73.613 75.7981 73.588 76.5481 73.588C77.298 73.588 78.023 73.638 78.7229 73.738C79.4229 73.788 79.9229 73.963 80.2229 74.263C80.5728 74.563 80.7728 74.963 80.8228 75.4629C80.8728 75.9129 80.7728 76.3379 80.5228 76.7379C80.2728 77.1878 79.8979 77.5878 79.3979 77.9378C78.9479 78.2378 78.4979 78.3378 78.048 78.2378C77.298 78.1378 76.5231 78.0878 75.7231 78.0878C74.9232 78.0878 74.1482 78.0628 73.3982 78.0128C72.6483 77.9128 71.9733 77.7878 71.3734 77.6378C70.8234 77.4378 70.4234 77.1128 70.1734 76.6629C69.6234 75.7629 69.3485 74.888 69.3485 74.038C69.3485 73.1381 69.4485 72.2131 69.6484 71.2632C70.0484 68.8133 70.4984 66.3634 70.9984 63.9136C71.4983 61.4637 72.0233 59.0139 72.5733 56.564L74.3732 48.6894C74.6232 47.6895 74.8482 46.6895 75.0481 45.6896C75.2981 44.6897 75.4981 43.6897 75.6481 42.6898Z" fill="#FFE766"/>
<path d="M99.3602 49.6644C100.31 50.6643 101.01 51.7893 101.46 53.0392C101.96 54.2391 102.285 55.5141 102.435 56.864C102.585 58.2139 102.585 59.5888 102.435 60.9887C102.285 62.3387 102.035 63.6386 101.685 64.8885C101.335 66.1385 100.835 67.3134 100.185 68.4133C99.5852 69.5133 98.7603 70.4632 97.7103 71.2632C96.7104 71.9631 95.6105 72.4381 94.4105 72.6881C93.2606 72.8881 92.0857 72.8881 90.8857 72.6881C89.5858 72.4881 88.3859 72.0631 87.2859 71.4132C86.236 70.7632 85.311 69.9632 84.5111 69.0133C83.7611 68.0633 83.1362 67.0134 82.6362 65.8635C82.1862 64.6635 81.8862 63.4386 81.7362 62.1887C81.4363 59.8888 81.6112 57.5639 82.2612 55.2141C82.9612 52.8142 84.1861 50.8143 85.936 49.2144C86.686 48.5144 87.5609 47.9645 88.5609 47.5645C89.5608 47.1145 90.5607 46.9395 91.5607 47.0395C91.6607 46.9895 91.7857 46.9645 91.9357 46.9645C92.0857 46.9145 92.2106 46.8645 92.3106 46.8145C93.6106 46.5646 94.8855 46.7645 96.1354 47.4145C97.4354 48.0145 98.5103 48.7644 99.3602 49.6644ZM98.0103 62.3387C98.5103 59.6888 98.4603 57.5139 97.8603 55.814C97.3104 54.1141 96.0104 52.5392 93.9605 51.0893C93.7106 50.9393 93.4606 50.8643 93.2106 50.8643C92.9606 50.8143 92.6856 50.7893 92.3856 50.7893C92.1357 50.7393 91.8857 50.6893 91.6357 50.6393C91.3857 50.5893 91.1607 50.4643 90.9607 50.2643C90.2108 50.4643 89.5108 50.8393 88.8608 51.3893C88.2609 51.9393 87.7359 52.5642 87.2859 53.2642C86.836 53.9641 86.461 54.7141 86.161 55.5141C85.911 56.314 85.736 57.064 85.636 57.7639C85.486 58.7639 85.461 59.8138 85.561 60.9137C85.661 62.0137 85.886 63.0636 86.236 64.0636C86.636 65.0635 87.1859 65.9635 87.8859 66.7634C88.5859 67.5134 89.4358 68.0633 90.4358 68.4133C91.2857 68.6633 92.1357 68.7883 92.9856 68.7883C93.8856 68.7383 94.7105 68.4133 95.4605 67.8134C96.2604 67.1634 96.8354 66.3384 97.1854 65.3385C97.5353 64.3386 97.8103 63.3386 98.0103 62.3387Z" fill="#FFE766"/>
<path d="M134.171 53.5642C134.521 54.2641 134.721 55.0141 134.771 55.814C134.821 56.564 134.896 57.3139 134.996 58.0639C135.146 59.9638 135.221 61.8637 135.221 63.7636C135.221 65.6635 135.171 67.5884 135.071 69.5383C135.021 71.4381 134.946 73.363 134.846 75.3129C134.746 75.8629 134.421 76.3129 133.871 76.6629C133.371 76.9628 132.871 77.0628 132.371 76.9628C131.721 76.8628 131.246 76.5629 130.946 76.0629C130.696 75.5629 130.596 75.0379 130.646 74.488C130.796 72.7381 130.896 70.9632 130.946 69.1633C130.996 67.3134 130.996 65.4885 130.946 63.6886C130.946 62.8886 130.921 62.0887 130.871 61.2887C130.871 60.4888 130.846 59.6888 130.796 58.8889C130.796 58.4889 130.771 58.0889 130.721 57.6889C130.721 57.2889 130.696 56.889 130.646 56.489C130.596 56.239 130.571 56.064 130.571 55.964C130.571 55.814 130.496 55.589 130.346 55.2891C130.296 55.3891 130.246 55.4641 130.196 55.5141C130.146 55.5141 130.096 55.539 130.046 55.589C129.796 55.689 129.621 55.814 129.521 55.964C128.521 56.864 127.697 57.8389 127.047 58.8889C125.697 60.9887 124.697 63.2136 124.047 65.5635C123.397 67.9133 122.797 70.2882 122.247 72.6881C122.097 73.288 121.772 73.763 121.272 74.113C120.822 74.413 120.322 74.513 119.772 74.413C119.172 74.313 118.722 74.013 118.422 73.513C118.172 73.0131 118.072 72.4881 118.122 71.9381C118.222 70.1882 118.272 68.4633 118.272 66.7634C118.322 65.0635 118.347 63.3386 118.347 61.5887C118.297 60.7888 118.272 60.0138 118.272 59.2638C118.272 58.4639 118.222 57.6639 118.122 56.864C118.122 56.514 118.122 56.164 118.122 55.814C118.122 55.4641 118.097 55.0891 118.047 54.6891V54.6141C117.847 54.7141 117.672 54.8391 117.522 54.9891C117.372 55.1391 117.247 55.2641 117.147 55.3641C116.747 55.764 116.347 56.214 115.947 56.714C115.597 57.164 115.247 57.6389 114.897 58.1389C113.447 60.1888 112.272 62.3637 111.372 64.6635C110.522 66.9634 109.898 69.3133 109.498 71.7131C109.398 72.2631 109.098 72.6881 108.598 72.9881C108.098 73.288 107.598 73.388 107.098 73.288C106.548 73.1881 106.123 72.9131 105.823 72.4631C105.573 72.0131 105.473 71.5131 105.523 70.9632C105.623 69.3133 105.723 67.6634 105.823 66.0135C105.923 64.3635 106.023 62.7136 106.123 61.0637C106.173 59.4638 106.323 57.7889 106.573 56.039C106.673 55.2391 106.773 54.4641 106.873 53.7142C107.023 52.9142 107.223 52.1142 107.473 51.3143C107.573 50.9143 107.873 50.6643 108.373 50.5643C108.923 50.4643 109.248 50.6643 109.348 51.1643C109.598 52.3142 109.748 53.4892 109.798 54.6891C109.898 55.889 109.923 57.089 109.873 58.2889C110.373 57.4389 110.897 56.614 111.447 55.814C112.047 55.0141 112.647 54.2141 113.247 53.4142C113.797 52.8142 114.347 52.2142 114.897 51.6143C115.497 50.9643 116.147 50.4893 116.847 50.1894C117.697 49.8394 118.497 49.8144 119.247 50.1144C120.047 50.3643 120.697 50.8393 121.197 51.5393C121.597 52.1892 121.847 52.8892 121.947 53.6392C122.097 54.3891 122.197 55.1391 122.247 55.889C122.247 56.339 122.247 56.789 122.247 57.239C122.297 57.6889 122.347 58.1639 122.397 58.6639C122.797 57.8139 123.247 57.014 123.747 56.264C124.297 55.5141 124.872 54.7891 125.472 54.0891C126.022 53.4392 126.647 52.8392 127.347 52.2892C128.097 51.6893 128.921 51.2893 129.821 51.0893C130.771 50.9393 131.621 51.1143 132.371 51.6143C133.171 52.0642 133.771 52.7142 134.171 53.5642ZM117.747 53.9391C117.697 53.7891 117.647 53.7392 117.597 53.7891C117.597 53.7891 117.647 53.8391 117.747 53.9391ZM130.346 55.1391C130.446 55.0391 130.421 55.0141 130.271 55.0641C130.121 55.1141 130.121 55.1641 130.271 55.2141L130.346 55.1391ZM130.496 55.2141C130.596 55.2641 130.646 55.2641 130.646 55.2141C130.646 55.1641 130.596 55.1641 130.496 55.2141Z" fill="#FFE766"/>
<path d="M157.309 51.1643C158.259 51.9143 158.984 52.8142 159.484 53.8641C159.984 54.8641 160.309 55.939 160.459 57.089C160.659 58.2389 160.709 59.4138 160.609 60.6138C160.509 61.8137 160.334 62.9636 160.084 64.0636C159.584 66.3134 158.659 68.4383 157.309 70.4382C155.959 72.3881 154.134 73.738 151.834 74.488C150.734 74.838 149.635 74.9629 148.535 74.863C147.435 74.763 146.41 74.388 145.46 73.738C144.21 72.9381 143.46 71.9131 143.21 70.6632C143.16 70.5132 143.135 70.2632 143.135 69.9132C143.085 70.0632 143.035 70.2132 142.985 70.3632C142.935 70.4632 142.885 70.5632 142.835 70.6632C142.585 71.1632 142.21 71.4881 141.71 71.6381C141.26 71.7881 140.785 71.8131 140.285 71.7131C139.835 71.5631 139.435 71.3132 139.085 70.9632C138.735 70.5632 138.61 70.0882 138.71 69.5383C139.11 66.2884 139.56 63.0636 140.06 59.8638C140.61 56.664 141.185 53.4392 141.785 50.1894C142.085 48.5894 142.385 47.0145 142.685 45.4646C143.035 43.9147 143.41 42.3398 143.81 40.7399C144.21 39.14 144.635 37.5901 145.085 36.0901C145.535 34.5402 146.01 32.9903 146.51 31.4404C146.56 31.1904 146.71 31.0154 146.96 30.9154C147.21 30.7654 147.435 30.7155 147.635 30.7655C147.885 30.7655 148.085 30.8404 148.235 30.9904C148.435 31.1404 148.51 31.3654 148.46 31.6654C148.26 33.2653 148.06 34.8902 147.86 36.5401C147.71 38.14 147.51 39.7399 147.26 41.3399C147.01 42.9398 146.76 44.5147 146.51 46.0646C146.26 47.5645 146.01 49.1144 145.76 50.7143C145.66 51.4143 145.56 52.1142 145.46 52.8142C145.36 53.4642 145.26 54.1391 145.16 54.8391C145.31 54.5391 145.46 54.2641 145.61 54.0141C145.76 53.7142 145.91 53.4392 146.06 53.1892C146.66 52.2892 147.36 51.4893 148.16 50.7893C149.01 50.0894 149.985 49.6394 151.084 49.4394C152.234 49.1894 153.334 49.2394 154.384 49.5894C155.434 49.9394 156.409 50.4643 157.309 51.1643ZM156.334 60.0888C156.384 59.2888 156.334 58.5139 156.184 57.7639C156.084 57.014 155.834 56.314 155.434 55.664C154.834 54.6141 153.934 53.9641 152.734 53.7142C152.284 53.6142 151.884 53.6642 151.534 53.8641C151.234 53.9641 150.984 54.1141 150.784 54.3141C150.634 54.5141 150.434 54.7391 150.185 54.9891C149.785 55.539 149.385 56.214 148.985 57.014C148.635 57.7639 148.31 58.4889 148.01 59.1888L144.41 67.0634C144.86 66.8134 145.385 66.7884 145.985 66.9884C146.585 67.1884 146.935 67.5634 147.035 68.1133C147.085 68.3633 147.235 68.6633 147.485 69.0133C147.735 69.3633 147.96 69.5883 148.16 69.6882C148.16 69.7382 148.21 69.7632 148.31 69.7632C148.36 69.7632 148.385 69.7882 148.385 69.8382C148.485 69.9382 148.685 70.0382 148.985 70.1382C149.285 70.2382 149.46 70.2382 149.51 70.1382H149.885C149.985 70.0882 150.135 70.0632 150.334 70.0632C150.584 70.0132 150.784 69.9382 150.934 69.8382C151.184 69.7382 151.484 69.6133 151.834 69.4633C152.184 69.2633 152.459 69.0633 152.659 68.8633C153.959 67.8134 154.859 66.4884 155.359 64.8885C155.909 63.2386 156.234 61.6387 156.334 60.0888Z" fill="#FFE766"/>
<path d="M169.148 46.7395C169.548 46.2896 169.973 46.2146 170.423 46.5146C170.873 46.8145 171.048 47.2395 170.948 47.7895C170.498 49.6894 170.148 51.6143 169.898 53.5642C169.648 55.4641 169.373 57.3889 169.073 59.3388C168.823 61.2387 168.598 63.1136 168.399 64.9635C168.199 66.8134 167.974 68.6883 167.724 70.5882C167.824 71.0882 167.849 71.4631 167.799 71.7131C167.699 72.0131 167.574 72.2881 167.424 72.5381C167.324 72.7381 167.174 72.9631 166.974 73.213C166.674 73.613 166.274 73.838 165.774 73.888C165.324 73.938 164.874 73.863 164.424 73.663C164.024 73.463 163.674 73.1881 163.374 72.8381C163.074 72.4381 162.949 72.0131 162.999 71.5631C163.249 69.3133 163.549 67.0884 163.899 64.8885C164.249 62.6886 164.624 60.4638 165.024 58.2139C165.224 57.164 165.424 56.114 165.624 55.0641C165.874 54.0141 166.149 52.9642 166.449 51.9143C166.699 50.9143 167.024 49.9894 167.424 49.1394C167.874 48.2395 168.449 47.4395 169.148 46.7395Z" fill="#FFE766"/>
<path d="M190.233 46.6646C190.433 46.0646 190.758 45.6896 191.208 45.5396C191.658 45.3396 192.083 45.3146 192.483 45.4646C192.933 45.5646 193.283 45.8146 193.533 46.2146C193.833 46.5646 193.958 47.0395 193.908 47.6395C193.508 50.0394 193.058 52.4142 192.558 54.7641C192.108 57.114 191.683 59.4888 191.283 61.8887C190.833 64.2386 190.533 66.5384 190.383 68.7883C190.283 69.9882 190.283 71.1632 190.383 72.3131C190.383 72.9131 190.408 73.513 190.458 74.113C190.558 74.713 190.583 75.3129 190.533 75.9129C190.533 76.4629 190.358 76.8878 190.008 77.1878C189.708 77.4878 189.333 77.6628 188.883 77.7128C188.483 77.7628 188.083 77.6878 187.683 77.4878C187.283 77.2378 186.983 76.8628 186.783 76.3629C186.383 75.2129 186.183 73.988 186.183 72.6881C186.183 71.3382 186.233 70.0382 186.333 68.7883C186.383 68.5383 186.408 68.2633 186.408 67.9633C186.408 67.6634 186.433 67.3884 186.483 67.1384C186.033 67.7884 185.433 68.4883 184.683 69.2383C183.833 70.0882 182.858 70.9132 181.758 71.7131C180.708 72.5131 179.533 72.9131 178.234 72.9131C176.834 72.8631 175.634 72.3881 174.634 71.4881C173.684 70.5382 172.984 69.4383 172.534 68.1883C172.134 67.0884 171.909 65.9385 171.859 64.7385C171.809 63.5386 171.884 62.3637 172.084 61.2137C172.384 59.0139 173.109 56.889 174.259 54.8391C175.459 52.7392 177.009 51.1143 178.908 49.9644C179.908 49.3644 181.008 49.0144 182.208 48.9144C183.408 48.8144 184.508 49.1144 185.508 49.8144C186.408 50.3643 187.133 51.1643 187.683 52.2142C187.783 52.3642 187.858 52.5142 187.908 52.6642C187.958 52.7642 188.033 52.8892 188.133 53.0392C188.483 51.9393 188.808 50.8643 189.108 49.8144C189.458 48.7144 189.833 47.6645 190.233 46.6646ZM180.558 67.0634C182.258 65.6135 183.608 63.9136 184.608 61.9637C185.658 59.9638 186.533 57.8889 187.233 55.739C186.833 55.0391 186.333 54.3891 185.733 53.7891C185.133 53.1892 184.408 52.8142 183.558 52.6642C182.708 52.5142 181.933 52.6892 181.233 53.1892C180.583 53.6392 179.983 54.1641 179.433 54.7641C178.333 55.964 177.509 57.3639 176.959 58.9639C176.409 60.5138 176.159 62.0887 176.209 63.6886C176.209 64.3885 176.259 65.1885 176.359 66.0885C176.509 66.9384 176.884 67.6134 177.484 68.1133C177.984 68.4633 178.408 68.5383 178.758 68.3383C179.108 68.1883 179.433 68.0133 179.733 67.8134C180.033 67.5634 180.308 67.3134 180.558 67.0634Z" fill="#FFE766"/>
<path d="M87.217 0.98432C87.5087 1.93218 87.5087 2.86182 87.217 3.77322C86.9618 4.68463 86.6702 5.55958 86.3421 6.39808C85.9775 7.30948 85.5765 8.20266 85.139 9.07761C84.7015 9.91611 84.2823 10.7546 83.8813 11.5931C83.2615 12.8326 82.6782 14.0539 82.1314 15.257C82.0585 15.3663 82.0038 15.4757 81.9673 15.5851C81.9673 15.6944 81.9309 15.8038 81.8579 15.9132C81.8215 15.9496 81.8033 16.0043 81.8033 16.0772C81.8033 16.0043 81.785 16.0043 81.7486 16.0772C81.7486 16.1137 81.7486 16.1501 81.7486 16.1866H81.6939C81.621 16.4418 81.5298 16.697 81.4205 16.9522C81.3111 17.1709 81.22 17.4079 81.147 17.6631C80.6731 18.7568 80.2174 19.8687 79.7799 20.9988C79.3789 22.0925 78.9779 23.2044 78.5769 24.3346C77.7384 26.5219 76.8999 28.7093 76.0614 30.8967C75.2229 33.0841 74.3115 35.2532 73.3272 37.4041C73.1449 37.7687 72.8715 38.0239 72.5069 38.1697C72.1423 38.3155 71.7596 38.3702 71.3585 38.3338C70.994 38.2973 70.6476 38.1697 70.3195 37.951C70.0279 37.6958 69.8456 37.3677 69.7727 36.9667C69.5539 35.6907 69.3899 34.3965 69.2805 33.0841C69.2076 31.7716 69.1347 30.4774 69.0618 29.2015C68.9524 26.6495 68.8795 24.1158 68.8431 21.6003C68.8431 19.0849 68.8066 16.5511 68.7337 13.9992C68.6972 12.9055 68.6243 11.7936 68.5149 10.6635C68.4056 9.53332 68.2962 8.4214 68.1868 7.32771C68.1139 6.19757 68.0592 5.06742 68.0228 3.93728C67.9863 2.80713 68.0592 1.69522 68.2415 0.60153C68.3144 0.20051 68.5696 0 69.0071 0C69.4446 0 69.718 0.20051 69.8274 0.60153C70.1555 1.8775 70.4289 3.1717 70.6476 4.48412C70.8664 5.76009 71.0669 7.05429 71.2492 8.36672C71.5773 10.6635 71.8142 12.942 71.9601 15.2023C72.1423 17.4626 72.2882 19.7593 72.3975 22.0925C72.4705 24.2434 72.5798 26.4126 72.7256 28.5999C73.5277 26.4126 74.3115 24.2617 75.0771 22.1472C75.8791 19.9963 76.7176 17.8453 77.5926 15.6944C78.1029 14.5278 78.6133 13.3795 79.1237 12.2493C79.6706 11.0827 80.2356 9.91611 80.8189 8.74951C81.1835 8.02038 81.5298 7.30948 81.8579 6.61682C82.186 5.88769 82.5142 5.15856 82.8423 4.42944C83.2068 3.70031 83.5714 2.98942 83.9359 2.29675C84.3005 1.60408 84.7927 1.00255 85.4124 0.49216C85.7041 0.236967 86.0504 0.145827 86.4514 0.218738C86.8525 0.291652 87.1076 0.546846 87.217 0.98432ZM81.7486 16.1866C81.7486 16.1501 81.7668 16.1137 81.8033 16.0772C81.7668 16.0772 81.7486 16.1137 81.7486 16.1866Z" fill="white"/>
<path d="M94.0244 12.7415C94.316 12.4134 94.6259 12.3587 94.954 12.5774C95.2821 12.7962 95.4097 13.106 95.3368 13.507C95.0087 14.8924 94.7535 16.296 94.5712 17.7177C94.3889 19.1031 94.1884 20.5067 93.9697 21.9284C93.7874 23.3138 93.6233 24.6809 93.4775 26.0298C93.3317 27.3787 93.1676 28.7458 92.9854 30.1311C93.0583 30.4957 93.0765 30.7691 93.04 30.9514C92.9671 31.1701 92.876 31.3706 92.7666 31.5529C92.6937 31.6987 92.5843 31.8628 92.4385 32.0451C92.2198 32.3367 91.9281 32.5008 91.5636 32.5372C91.2355 32.5737 90.9074 32.519 90.5792 32.3732C90.2876 32.2273 90.0324 32.0268 89.8137 31.7716C89.5949 31.48 89.5038 31.1701 89.5402 30.842C89.7225 29.2015 89.9413 27.5792 90.1965 25.9751C90.4517 24.371 90.7251 22.7487 91.0167 21.1082C91.1625 20.3426 91.3084 19.577 91.4542 18.8114C91.6365 18.0459 91.837 17.2803 92.0557 16.5147C92.238 15.7856 92.475 15.1111 92.7666 14.4914C93.0947 13.8352 93.514 13.2519 94.0244 12.7415Z" fill="white"/>
<path d="M109.398 12.6868C109.544 12.2493 109.781 11.9759 110.109 11.8665C110.437 11.7207 110.747 11.7025 111.039 11.8118C111.367 11.8847 111.622 12.067 111.804 12.3587C112.023 12.6139 112.114 12.9602 112.078 13.3977C111.786 15.1476 111.458 16.8793 111.094 18.5927C110.765 20.3061 110.456 22.0378 110.164 23.7877C109.836 25.5012 109.617 27.1782 109.508 28.8187C109.435 29.6936 109.435 30.5504 109.508 31.3889C109.508 31.8263 109.526 32.2638 109.562 32.7013C109.635 33.1388 109.654 33.5762 109.617 34.0137C109.617 34.4147 109.49 34.7246 109.234 34.9433C109.016 35.1621 108.742 35.2897 108.414 35.3261C108.122 35.3626 107.831 35.3079 107.539 35.1621C107.247 34.9798 107.029 34.7064 106.883 34.3418C106.591 33.5033 106.445 32.6101 106.445 31.6623C106.445 30.678 106.482 29.7301 106.555 28.8187C106.591 28.6364 106.609 28.4359 106.609 28.2172C106.609 27.9984 106.628 27.7979 106.664 27.6156C106.336 28.0896 105.899 28.5999 105.352 29.1468C104.732 29.7665 104.021 30.3681 103.219 30.9514C102.453 31.5347 101.597 31.8263 100.649 31.8263C99.6281 31.7899 98.7531 31.4435 98.024 30.7873C97.3313 30.0947 96.821 29.2926 96.4929 28.3812C96.2012 27.5792 96.0372 26.7407 96.0007 25.8657C95.9642 24.9908 96.0189 24.1341 96.1647 23.2956C96.3835 21.6915 96.9121 20.1421 97.7506 18.6474C98.6255 17.1162 99.7557 15.9314 101.141 15.0929C101.87 14.6554 102.672 14.4002 103.547 14.3273C104.422 14.2544 105.224 14.4731 105.953 14.9835C106.609 15.3845 107.138 15.9678 107.539 16.7334C107.612 16.8428 107.667 16.9522 107.703 17.0615C107.74 17.1344 107.794 17.2256 107.867 17.335C108.122 16.5329 108.359 15.7491 108.578 14.9835C108.833 14.1815 109.107 13.4159 109.398 12.6868ZM102.344 27.5609C103.584 26.5037 104.568 25.2642 105.297 23.8424C106.063 22.3842 106.701 20.8712 107.211 19.3036C106.919 18.7932 106.555 18.3193 106.117 17.8818C105.68 17.4443 105.151 17.1709 104.531 17.0615C103.912 16.9522 103.347 17.0798 102.836 17.4443C102.362 17.7724 101.925 18.1552 101.524 18.5927C100.722 19.4677 100.12 20.4884 99.7192 21.655C99.3182 22.7852 99.1359 23.9335 99.1724 25.1001C99.1724 25.6105 99.2088 26.1938 99.2818 26.85C99.3911 27.4698 99.6645 27.962 100.102 28.3265C100.467 28.5817 100.776 28.6364 101.032 28.4906C101.287 28.3812 101.524 28.2536 101.743 28.1078C101.961 27.9255 102.162 27.7432 102.344 27.5609Z" fill="white"/>
<path d="M124.171 11.5931C124.718 12.8691 125.101 14.3273 125.32 15.9678C125.575 17.6084 125.702 19.3036 125.702 21.0535C125.739 22.8034 125.684 24.5168 125.538 26.1938C125.393 27.8708 125.21 29.3838 124.992 30.7326C124.809 31.7899 124.536 32.8289 124.171 33.8496C123.843 34.834 123.242 35.6907 122.367 36.4198C121.601 37.1125 120.708 37.55 119.687 37.7322C118.703 37.9145 117.719 37.8416 116.734 37.5135C116.297 37.3677 115.859 37.1489 115.422 36.8573C114.984 36.5656 114.602 36.2375 114.273 35.873C113.945 35.472 113.708 35.0527 113.563 34.6152C113.38 34.1413 113.344 33.6491 113.453 33.1388C113.417 32.9565 113.417 32.7742 113.453 32.5919C113.49 32.3732 113.599 32.1909 113.781 32.0451C113.927 31.8628 114.091 31.7534 114.273 31.717C114.492 31.644 114.711 31.6258 114.93 31.6623C115.039 31.7716 115.148 31.881 115.258 31.9904C115.367 32.0633 115.476 32.1727 115.586 32.3185C115.841 32.4643 116.005 32.6101 116.078 32.756L116.297 32.9747C116.37 33.0476 116.406 33.1205 116.406 33.1934C116.406 33.2299 116.388 33.2299 116.351 33.1934C116.497 33.2663 116.68 33.4486 116.898 33.7403C116.898 33.6674 116.898 33.6491 116.898 33.6856C116.898 33.6856 116.953 33.7221 117.062 33.795C117.062 33.8679 117.081 33.9226 117.117 33.959C117.19 33.959 117.245 33.9772 117.281 34.0137C117.573 34.196 117.864 34.3236 118.156 34.3965C118.484 34.4694 118.794 34.5059 119.086 34.5059C119.377 34.4329 119.669 34.3418 119.961 34.2324C120.289 34.0866 120.58 33.8679 120.836 33.5762C121.127 33.1752 121.328 32.756 121.437 32.3185C121.583 31.8446 121.692 31.3888 121.765 30.9514C122.385 28.1078 122.695 25.1731 122.695 22.1472C122.731 19.1213 122.531 16.059 122.093 12.9602C121.218 12.8144 120.38 12.8691 119.578 13.1243C119.323 13.1972 119.104 13.1789 118.922 13.0696C118.739 12.9602 118.612 12.8144 118.539 12.6321C118.466 12.4498 118.448 12.2675 118.484 12.0853C118.557 11.903 118.703 11.7571 118.922 11.6478C120.27 10.9551 121.747 10.6999 123.351 10.8822C123.752 10.8822 124.025 11.1192 124.171 11.5931Z" fill="white"/>
<path d="M142.294 12.6868C142.44 12.2493 142.677 11.9759 143.005 11.8665C143.333 11.7207 143.643 11.7025 143.935 11.8118C144.263 11.8847 144.518 12.067 144.701 12.3587C144.919 12.6139 145.01 12.9602 144.974 13.3977C144.682 15.1476 144.354 16.8793 143.99 18.5927C143.662 20.3061 143.352 22.0378 143.06 23.7877C142.732 25.5012 142.513 27.1782 142.404 28.8187C142.331 29.6936 142.331 30.5504 142.404 31.3889C142.404 31.8263 142.422 32.2638 142.459 32.7013C142.531 33.1388 142.55 33.5762 142.513 34.0137C142.513 34.4147 142.386 34.7246 142.13 34.9433C141.912 35.1621 141.638 35.2897 141.31 35.3261C141.018 35.3626 140.727 35.3079 140.435 35.1621C140.144 34.9798 139.925 34.7064 139.779 34.3418C139.487 33.5033 139.342 32.6101 139.342 31.6623C139.342 30.678 139.378 29.7301 139.451 28.8187C139.487 28.6364 139.506 28.4359 139.506 28.2172C139.506 27.9984 139.524 27.7979 139.56 27.6156C139.232 28.0896 138.795 28.5999 138.248 29.1468C137.628 29.7665 136.917 30.3681 136.115 30.9514C135.35 31.5347 134.493 31.8263 133.545 31.8263C132.524 31.7899 131.649 31.4435 130.92 30.7873C130.227 30.0947 129.717 29.2926 129.389 28.3812C129.097 27.5792 128.933 26.7407 128.897 25.8657C128.86 24.9908 128.915 24.1341 129.061 23.2956C129.28 21.6915 129.808 20.1421 130.647 18.6474C131.522 17.1162 132.652 15.9314 134.037 15.0929C134.766 14.6554 135.568 14.4002 136.443 14.3273C137.318 14.2544 138.12 14.4731 138.849 14.9835C139.506 15.3845 140.034 15.9678 140.435 16.7334C140.508 16.8428 140.563 16.9522 140.599 17.0615C140.636 17.1344 140.69 17.2256 140.763 17.335C141.018 16.5329 141.255 15.7491 141.474 14.9835C141.729 14.1815 142.003 13.4159 142.294 12.6868ZM135.24 27.5609C136.48 26.5037 137.464 25.2642 138.193 23.8424C138.959 22.3842 139.597 20.8712 140.107 19.3036C139.815 18.7932 139.451 18.3193 139.013 17.8818C138.576 17.4443 138.047 17.1709 137.428 17.0615C136.808 16.9522 136.243 17.0798 135.732 17.4443C135.258 17.7724 134.821 18.1552 134.42 18.5927C133.618 19.4677 133.016 20.4884 132.615 21.655C132.214 22.7852 132.032 23.9335 132.068 25.1001C132.068 25.6105 132.105 26.1938 132.178 26.85C132.287 27.4698 132.561 27.962 132.998 28.3265C133.363 28.5817 133.673 28.6364 133.928 28.4906C134.183 28.3812 134.42 28.2536 134.639 28.1078C134.857 27.9255 135.058 27.7432 135.24 27.5609Z" fill="white"/>
</svg>
